<?xml version="1.0" encoding="utf-8"?>
<svg xmlns="http://www.w3.org/2000/svg" viewBox="42.999 42.5185 441.101 163.3815" width="441.101px" height="163.381px" preserveAspectRatio="none"><defs><style type="text/css">
	.st0{fill:#12100B;}
</style></defs><path class="st0" d="M65.8,179c13.4-2.3,23.5-11.5,31.3-24.7l-10.2-6.6c-6.2,8.7-12.5,13.7-16.9,14.4c-4.2,0.7-5.9-1.3-6.2-5.4 c23.7-13.1,28.9-21.3,28.9-30.4c0-9.2-6.6-15-18.4-12.9c-18.3,3.2-31.3,20-31.3,44.6C42.9,173.4,50.4,181.7,65.8,179z M71.5,128.8 c2.9-0.5,4.3,1.6,4.3,3.6c0,3.4-2.4,7.3-12.1,13.2C64.5,135.7,66.7,129.6,71.5,128.8z M99.1,172.1c-0.1-1.9-0.3-4.2-0.3-6.5 c0-2.5,0.1-5.2,0.4-8.1l4.8-47.6l17.3-4c0.9,2.5,1.3,5.8,1.3,8.9c0,2.4-0.1,4.5-0.4,7.5c11.1-16.1,16.5-20.1,21.8-21 c8.4-1.5,11.2,2.1,11.2,10.6c0,0.8-0.2,3.3-0.5,4.7c11.1-16.1,16.5-20.1,21.8-21c7.9-1.4,11.8,1.2,11.8,11c0,1.9-0.1,4.1-0.4,6.7 l-2.8,22.8c-0.4,3.5-0.4,6.3-0.4,6.3c2-0.6,4.1-1.4,6.1-2.2l1.9,10.6c-4.2,3.7-11.3,7.7-18.7,9c-7.6,1.3-10.3-0.9-10.3-6.7 c0-1.9,0.4-6.4,0.9-9.8l2.7-19.3c0.1-1.2,0.3-2.8,0.3-4c0-1.8-0.4-3-0.9-3.5c-3.9,3.6-9.4,11.6-13.6,18.2l-2.9,28.4l-18.4,3.2 c-0.3-1.9-0.4-4-0.4-6c0-2.8,0.1-5.6,0.5-8.5l2.8-22c0.1-1.2,0.2-2.6,0.2-3.6c0-2-0.5-3.3-0.9-3.9c-3.9,3.6-9.2,11.5-13.4,18.1 l-2.9,28.4L99.1,172.1z M214.8,151c2.4,0.3,5.8,0,9-0.6c14.5-2.6,28.5-19.8,28.5-42.6c0-14.8-5.5-25-14.8-23.4 c-5.1,0.9-8.8,4.1-17.5,16.8l0.9-7.9c0.1-1.8,0.3-3.1,0.3-4.3c0-3.8-0.5-7.7-1.5-10L202.7,83l-8.9,80.6c-0.5,4.4-0.5,7-0.5,10 c0,2.5,0.1,4.5,0.5,6.1L48.4,205.9h376.4l59.3-78.4l-271.9,48.9L214.8,151z M218.3,117.9c3.4-5.2,6.4-9.3,9.7-13.3 c2.8,1.2,4.1,6.4,4.1,10.7c0,13.9-4.3,20.5-10.3,21.5c-1.3,0.2-3.9,0.2-5.6-0.2L218.3,117.9z M272.8,142.5c5-0.9,11.1-8.8,18.3-20.2 c-0.8,2.8-1.6,8.9-1.6,10.8c0,5.1,2.7,6,9.2,4.9c7.4-1.3,14.3-5.5,18.3-9.1l-1.8-10.6c-2,0.9-4.3,1.6-6.3,2.3c0,0,0.1-2.4,0.5-5.9 l4.3-43l-14.4,4.1c-3.9-0.8-7.1-1-11.5-0.3c-16.9,3-31.4,20.8-31.4,44C256.4,137.1,262.6,144.3,272.8,142.5z M286.8,90.6 c1.7-0.3,4.2-0.1,5.8,0.2l-2.2,19.2c-2.3,3.5-6.6,9.4-9.3,12.3c-2.9-1.3-4.2-6-4.2-10.7C276.9,100.1,280.2,91.7,286.8,90.6z M319.7,121c0-1.9,0.1-3.8,0.4-6.3l5.7-43.8l16.5-3.9c1,2.1,1.5,6.1,1.5,9.9c0,1.8-0.2,6-0.6,7.9l-2.3,17.7 c-0.2,2.1-0.4,4.5-0.4,6.3c0,1.7,0.1,2.9,0.3,3.5c3.8-3.5,9.9-10.2,14-15.6l3.1-31.5l17.1-4c1.1,2.1,1.5,6.1,1.5,9.9 c0,1.8-0.2,6-0.6,7.9l-2.5,24c-0.4,3.5-0.4,6.3-0.4,6.3c2-0.6,4.1-1.4,6.1-2.2l1.9,10.6c-4.1,3.6-10.9,7.7-18.3,9 c-6.3,1.1-10,0.5-10-4.6c0-1.9,0.8-7.3,1.4-10.2c-8.3,11.8-15.1,19.1-21.6,20.2C324.1,133.6,319.7,131,319.7,121z M406,119 c13.4-2.4,23.5-11.5,31.3-24.8l-10.2-6.6c-6.2,8.7-12.5,13.7-16.9,14.4c-4.2,0.7-5.8-1.3-6.2-5.4c23.7-13.1,28.9-21.3,28.9-30.4 c0-9.2-6.6-15-18.5-12.9c-18.3,3.2-31.3,20-31.3,44.6C383.1,113.4,390.6,121.8,406,119z M411.8,68.8c2.9-0.5,4.3,1.6,4.3,3.6 c0,3.4-2.4,7.3-12.1,13.2C404.8,75.7,406.9,69.6,411.8,68.8z M439.3,112.2c-0.1-1.9-0.3-4.2-0.3-6.5c0-2.5,0.1-5.2,0.4-8.1 c4.1-38.3,4.8-47.6,4.8-47.6l15.5-3.4c1,2.1,1.4,6.1,1.4,9.9c0,1.8-0.2,5-0.5,6.8c4.5-13.8,10.3-19.6,14.6-20.4 c3.8-0.7,6.4-0.4,8.8,0.6l-3.3,17.6c-2.3,0.2-5.2,0.4-9.7,1.2c-2.9,3.3-7.4,10.3-10.3,16.3l-2.9,30L439.3,112.2z" id="object-0" transform="matrix(1, 0, 0, 1, 0, 7.105427357601002e-15)"/></svg>