<?xml version="1.0" encoding="utf-8"?>
<!-- Generator: Adobe Illustrator 23.0.3, SVG Export Plug-In . SVG Version: 6.00 Build 0)  -->
<svg id="DxForumsDarkGray" xmlns="http://www.w3.org/2000/svg" width="16" height="16" viewBox="0 0 16 16">
	 y="0px" viewBox="0 0 16 16" style="enable-background:new 0 0 16 16;" xml:space="preserve">
<style type="text/css">
	.st0{fill:none;}
	.st1{fill:#FFFFFF;}
</style>
<g id="DxEcodexImport" transform="translate(0 -199.995)">
	<rect id="_Slice_" x="0.016502" y="199.994995" class="st0" width="16" height="16"/>
</g>
<g>
	<g>
		<path class="st1" d="M15.064078,9.946536l-1.822949,0.449063c-0.251449,0.061933-0.404862,0.31575-0.343006,0.566769
			c0.061854,0.251017,0.323863,0.403387,0.566768,0.343005l0.923417-0.227635
			c-0.974189,1.99462-2.868434,3.470125-5.083956,3.872349C5.491807,15.642247,1.79109,13.078781,1.09893,9.266237
			c-0.046253-0.254769-0.289838-0.4235-0.544608-0.377247S0.130823,9.178829,0.177076,9.433598
			c0.784421,4.32073,4.973906,7.222765,9.294638,6.438343c2.339358-0.424706,4.351493-1.913837,5.50659-3.936699l0.09221,0.50791
			c0.046253,0.25477,0.289838,0.4235,0.544607,0.377248c0.25477-0.046253,0.423499-0.289839,0.377247-0.544608l-0.35548-1.95805
			C15.590919,10.064539,15.308061,9.887894,15.064078,9.946536z"/>
	</g>
</g>
<g>
	<g>
		<path class="st1" d="M0.935922,6.053464l1.82295-0.449063C3.01032,5.542467,3.163733,5.28865,3.101878,5.037632
			C3.040023,4.786615,2.778014,4.634244,2.53511,4.694627L1.611692,4.922263c0.974189-1.994621,2.868434-3.470126,5.083956-3.87235
			c3.812544-0.69216,7.513262,1.871306,8.205421,5.683849c0.046253,0.254769,0.289838,0.4235,0.544608,0.377247
			c0.254771-0.046253,0.423499-0.289838,0.377246-0.544607c-0.78442-4.32073-4.973906-7.222764-9.294638-6.438344
			c-2.339359,0.424706-4.351493,1.913837-5.50659,3.936699l-0.09221-0.50791C0.883233,3.302076,0.639648,3.133347,0.384879,3.1796
			c-0.25477,0.046253-0.4235,0.289839-0.377247,0.544608l0.35548,1.958049C0.409082,5.935461,0.69194,6.112106,0.935922,6.053464z"
			/>
	</g>
</g>
<g>
	<path class="st1" d="M3.282753,7.736906c0-0.831783,0.14961-1.414072,0.448831-1.746446
		C4.031655,5.658086,4.488137,5.4919,5.10103,5.4919c0.29412,0,0.536387,0.036128,0.725101,0.108807
		c0.189563,0.07268,0.343423,0.167037,0.463282,0.283495C6.40842,6.00066,6.502778,6.123069,6.570782,6.251429
		C6.639637,6.379787,6.69489,6.529822,6.736543,6.700684c0.081605,0.326848,0.122408,0.666871,0.122408,1.021345
		c0,0.793955-0.134309,1.375821-0.402928,1.743897c-0.268618,0.368076-0.73105,0.552539-1.388146,0.552539
		c-0.368075,0-0.665596-0.058655-0.892562-0.175962C3.94835,9.724344,3.762186,9.552632,3.616826,9.325666
		C3.51142,9.164156,3.428963,8.94399,3.370309,8.66432C3.311656,8.384226,3.282753,8.074804,3.282753,7.736906z M4.488986,7.739881
		c0,0.557639,0.049304,0.93804,0.14791,1.142055C4.734654,9.08595,4.877464,9.187957,5.065327,9.187957
		c0.123259,0,0.230367-0.043352,0.320473-0.129209c0.090956-0.086706,0.157261-0.223565,0.199764-0.411003
		c0.043352-0.187014,0.064604-0.479434,0.064604-0.875136c0-0.581016-0.049303-0.971618-0.14791-1.171806
		c-0.098607-0.199764-0.246517-0.30007-0.442881-0.30007c-0.201465,0-0.346824,0.102007-0.43608,0.306022
		C4.53319,6.810767,4.488986,7.188618,4.488986,7.739881z"/>
	<path class="st1" d="M7.40554,6.641181c0-0.203165,0.044203-0.396128,0.132609-0.579316s0.224416-0.323873,0.406328-0.42248
		C8.12639,5.540779,8.342305,5.4919,8.590523,5.4919c0.366376,0,0.655396,0.104132,0.86621,0.313247
		S9.772955,6.293081,9.772955,6.64118c0,0.350224-0.105408,0.629894-0.316222,0.839008
		C9.245917,7.689303,8.956898,7.793435,8.590522,7.793435c-0.248218,0-0.464132-0.048878-0.646045-0.147485
		C7.762565,7.547343,7.626555,7.406659,7.538148,7.22347C7.449743,7.040284,7.40554,6.846045,7.40554,6.641181z M8.244548,6.647131
		c0,0.246942,0.039953,0.42588,0.119008,0.537238C8.41541,7.258324,8.491065,7.294876,8.590522,7.294876
		c0.099458,0,0.174262-0.036552,0.224416-0.110507c0.079056-0.111358,0.119859-0.290296,0.119859-0.537238
		c0-0.244816-0.040803-0.423755-0.119859-0.537237C8.764784,6.038063,8.68998,6.002361,8.590522,6.002361
		c-0.099457,0-0.175112,0.035702-0.226966,0.107532C8.284501,6.221251,8.244548,6.400189,8.244548,6.647131z M11.121148,5.491901
		h0.630743l-2.528074,4.675325H8.599873L11.121148,5.491901z M10.561809,9.009445c0-0.204865,0.044204-0.399103,0.13091-0.581016
		c0.088406-0.182762,0.222715-0.323023,0.406326-0.423329c0.183613-0.098608,0.397828-0.14876,0.644345-0.14876
		c0.368925,0,0.657946,0.104557,0.86876,0.315372c0.210814,0.209964,0.316222,0.489209,0.316222,0.837733
		c0,0.347673-0.105408,0.627343-0.316222,0.837308s-0.499835,0.314522-0.86876,0.314522
		c-0.246517,0-0.460732-0.049304-0.644345-0.148761s-0.317922-0.240566-0.406326-0.42248
		C10.606012,9.408122,10.561809,9.214309,10.561809,9.009445z M11.399967,9.015395c0,0.246517,0.040803,0.425879,0.120708,0.537237
		c0.049303,0.071405,0.124108,0.107107,0.222715,0.107107c0.100307,0,0.175112-0.035702,0.227816-0.107107
		c0.079906-0.111357,0.119009-0.29072,0.119009-0.537237c0-0.247368-0.039103-0.428005-0.119009-0.541063
		c-0.052704-0.071404-0.127508-0.107106-0.227816-0.107106c-0.098607,0-0.173412,0.036551-0.222715,0.110507
		C11.44077,8.58909,11.399967,8.768027,11.399967,9.015395z"/>
</g>
<path class="st1" d="M16,1h-2.122371c-0.276142,0-0.499999-0.223857-0.499999-0.5v0.015685
	C13.377629,0.239543,13.601486,0,13.877628,0H16V1z"/>
<path class="st1" d="M16,0v2.122371c0,0.276142-0.223857,0.499999-0.5,0.499999h0.015685
	C15.239543,2.622371,15,2.398514,15,2.122372V0H16z"/>
</svg>
