<?xml version="1.0" encoding="utf-8"?>
<!-- Generator: Adobe Illustrator 23.0.3, SVG Export Plug-In . SVG Version: 6.00 Build 0)  -->
<svg id="DxForumsDarkGray" xmlns="http://www.w3.org/2000/svg" width="16" height="16" viewBox="0 0 16 16">
	 y="0px" viewBox="0 0 16 16" style="enable-background:new 0 0 16 16;" xml:space="preserve">
<style type="text/css">
	.st0{fill:#333333;}
	.st1{fill:none;}
</style>
<g>
	<g>
		<path class="st0" d="M6.870972,8.811829H5.822327c-0.230957,0-0.418091,0.187134-0.418152,0.418152v4.351868
			C5.404175,13.812805,5.59137,14,5.822327,14h1.035339C6.065308,12.408447,6.07019,10.399536,6.870972,8.811829z"/>
	</g>
</g>
<g>
	<g>
		<path class="st0" d="M2,11.229965v2.351899C2,13.812826,2.187174,14,2.418136,14h1.567913
			c0.230962,0,0.418136-0.187174,0.418136-0.418136v-2.351899c0-0.230961-0.187174-0.418135-0.418136-0.418135H2.418136
			C2.187174,10.811831,2.000056,10.998948,2,11.229965z"/>
	</g>
</g>
<g>
	<path class="st0" d="M5.094727,3.805664c0,0.269043,0.21875,0.487793,0.487793,0.487793s0.487793-0.21875,0.487793-0.487793
		c0-0.67334-0.632324-1.230469-1.55127-1.379883C4.488282,2.186035,4.283204,2,4.035157,2S3.582032,2.186035,3.55127,2.425781
		C2.632324,2.575195,2,3.132324,2,3.805664c0,1.029297,1.020996,1.397461,1.547363,1.560547V6.58252
		C3.170898,6.484375,2.975098,6.290039,2.975098,6.199219c0-0.269043-0.21875-0.487793-0.487305-0.487793
		C2.21875,5.711426,2,5.930176,2,6.199219c0,0.67334,0.632324,1.230469,1.55127,1.379883
		c0.030762,0.239746,0.23584,0.425781,0.483887,0.425781s0.453125-0.186035,0.483887-0.425781
		c0.918945-0.149414,1.55127-0.706543,1.55127-1.379883c0-1.029785-1.020996-1.397949-1.547363-1.561035v-1.21582
		C4.898926,3.520508,5.094727,3.714844,5.094727,3.805664z M5.094727,6.199219c0,0.050781-0.056641,0.144531-0.216797,0.240234
		c-0.099121,0.05957-0.219727,0.108398-0.35498,0.143066V5.675293C4.994141,5.861328,5.094727,6.016113,5.094727,6.199219z
		 M2.975586,3.805664c0-0.050781,0.056641-0.144531,0.216797-0.240234c0.099121-0.05957,0.219727-0.108398,0.35498-0.143066V4.32959
		C3.076171,4.143555,2.975586,3.98877,2.975586,3.805664z"/>
	<path class="st0" d="M7.130371,4.851563h1.51092c0.268555,0,0.487305-0.21875,0.487305-0.487793
		s-0.21875-0.487793-0.487305-0.487793h-1.51092c-0.269043,0-0.487793,0.21875-0.487793,0.487793
		S6.861329,4.851563,7.130371,4.851563z"/>
	<path class="st0" d="M11.15918,5.42334H7.130371c-0.269043,0-0.487793,0.21875-0.487793,0.487793
		s0.21875,0.487793,0.487793,0.487793h4.028809c0.269531,0,0.488281-0.21875,0.488281-0.487793S11.428711,5.42334,11.15918,5.42334z
		"/>
</g>
<g id="DxEcodexImport" transform="translate(0 -199.995)">
	<path class="st1" d="M11.333313,206.161682c0.036194,0,0.069336,0.004517,0.105164,0.005127
		c0.021484-0.000244,0.039856-0.005127,0.061523-0.005127c2.267212,0,3.769653,1.180603,4.516479,2.747925v-8.914612h-16v16
		h8.683716C4.729614,213.68689,5.612976,206.161682,11.333313,206.161682z"/>
	<g id="Group_3324">
		<path class="st0" d="M7.508057,214.994995H1v-14h9v3h3v2.36676c0.360657,0.098938,0.694092,0.232361,1,0.397095v-3.658875
			l-3-3.10498H0v16h8.700195C8.236877,215.725647,7.839172,215.386169,7.508057,214.994995z M11,201.394958l1.5,1.600037H11
			V201.394958z"/>
	</g>
</g>
<g id="Group_23">
	<path id="Path_132" class="st0" d="M12,11V9h-1v2H9v1h2v2h1v-2h2v-1H12z"/>
</g>
<path id="Path_2962" class="st0" d="M11.5,7C9.014719,7,7,9.014719,7,11.5S9.014719,16,11.5,16s4.5-2.014719,4.5-4.5
	C15.997244,9.015861,13.984139,7.002756,11.5,7z M11.5,15C9.567003,15,8,13.432997,8,11.5S9.567003,8,11.5,8S15,9.567003,15,11.5
	S13.432997,15,11.5,15z"/>
</svg>
