<?xml version="1.0" encoding="utf-8"?>
<!-- Generator: Adobe Illustrator 23.0.3, SVG Export Plug-In . SVG Version: 6.00 Build 0)  -->
<svg id="DxForumsDarkGray" xmlns="http://www.w3.org/2000/svg" width="16" height="16" viewBox="0 0 16 16">
	 y="0px" viewBox="0 0 16 16" style="enable-background:new 0 0 16 16;" xml:space="preserve">
<style type="text/css">
	.st0{fill:#333333;}
	.st1{fill:none;}
</style>
<g>
	<g>
		<path class="st0" d="M5.797908,9.229965v4.351899C5.797908,13.812826,5.985082,14,6.216043,14h1.567913
			c0.230962,0,0.418136-0.187174,0.418136-0.418136V9.229965c0-0.230961-0.187174-0.418135-0.418136-0.418135H6.216043
			C5.985082,8.811831,5.797964,8.998948,5.797908,9.229965z"/>
	</g>
</g>
<g>
	<g>
		<path class="st0" d="M2,11.229965v2.351899C2,13.812826,2.187174,14,2.418136,14h1.567913
			c0.230962,0,0.418136-0.187174,0.418136-0.418136v-2.351899c0-0.230961-0.187174-0.418135-0.418136-0.418135H2.418136
			C2.187174,10.811831,2.000056,10.998948,2,11.229965z"/>
	</g>
</g>
<g>
	<path class="st0" d="M5.094727,3.805664c0,0.269043,0.21875,0.487793,0.487793,0.487793s0.487793-0.21875,0.487793-0.487793
		c0-0.67334-0.632324-1.230469-1.55127-1.379883C4.488282,2.186035,4.283204,2,4.035157,2S3.582032,2.186035,3.55127,2.425781
		C2.632324,2.575195,2,3.132324,2,3.805664c0,1.029297,1.020996,1.397461,1.547363,1.560547V6.58252
		C3.170898,6.484375,2.975098,6.290039,2.975098,6.199219c0-0.269043-0.21875-0.487793-0.487305-0.487793
		C2.21875,5.711426,2,5.930176,2,6.199219c0,0.67334,0.632324,1.230469,1.55127,1.379883
		c0.030762,0.239746,0.23584,0.425781,0.483887,0.425781s0.453125-0.186035,0.483887-0.425781
		c0.918945-0.149414,1.55127-0.706543,1.55127-1.379883c0-1.029785-1.020996-1.397949-1.547363-1.561035v-1.21582
		C4.898926,3.520508,5.094727,3.714844,5.094727,3.805664z M5.094727,6.199219c0,0.050781-0.056641,0.144531-0.216797,0.240234
		c-0.099121,0.05957-0.219727,0.108398-0.35498,0.143066V5.675293C4.994141,5.861328,5.094727,6.016113,5.094727,6.199219z
		 M2.975586,3.805664c0-0.050781,0.056641-0.144531,0.216797-0.240234c0.099121-0.05957,0.219727-0.108398,0.35498-0.143066V4.32959
		C3.076171,4.143555,2.975586,3.98877,2.975586,3.805664z"/>
	<path class="st0" d="M7.130371,4.851563h1.51092c0.268555,0,0.487305-0.21875,0.487305-0.487793
		s-0.21875-0.487793-0.487305-0.487793h-1.51092c-0.269043,0-0.487793,0.21875-0.487793,0.487793
		S6.861329,4.851563,7.130371,4.851563z"/>
	<path class="st0" d="M11.15918,5.42334H7.130371c-0.269043,0-0.487793,0.21875-0.487793,0.487793
		s0.21875,0.487793,0.487793,0.487793h4.028809c0.269531,0,0.488281-0.21875,0.488281-0.487793S11.428711,5.42334,11.15918,5.42334z
		"/>
</g>
<g id="DxEcodexImport" transform="translate(0 -199.995)">
	<rect id="_Slice_" x="0.016502" y="199.994995" class="st1" width="16" height="16"/>
	<g id="Group_3324">
		<path class="st0" d="M6.99665,214.994995H1v-14h9v3h3v2.96666c0.313725,0,0.686275,0.003922,1,0.003922v-3.865601l-3-3.10498H0v16
			h7.000678C7.004767,215.655884,7.004706,215.321533,6.99665,214.994995z M11,201.394958l1.5,1.600037H11V201.394958z"/>
	</g>
</g>
<g id="Group_34">
	<path id="Path_146" class="st0" d="M13.11552,7.999999c-1.626753-0.030101-2.969898,1.264239-3,2.890992
		c-0.000672,0.036333-0.000672,0.072675,0,0.109008c-0.016254,0.651645,0.19601,1.288438,0.6,1.8l-2.6,2.5L8.815519,16l2.5-2.500001
		c0.511938,0.315287,1.098884,0.487918,1.7,0.5c1.626753,0.030102,2.969898-1.264239,2.999999-2.890992
		c0.000671-0.036333,0.000671-0.072675,0-0.109008c0.041475-1.614901-1.234035-2.957659-2.848936-2.999134
		C13.149564,8.000427,13.132543,8.000139,13.11552,7.999999z M13.11552,12.999999c-1.104568,0-2-0.895431-2-2s0.895431-2,2-2
		s2,0.895431,2,2C15.112225,12.103201,14.218721,12.996704,13.11552,12.999999z"/>
</g>
</svg>
