<svg width="16" height="16" viewBox="0 0 16 16" fill="none" xmlns="http://www.w3.org/2000/svg">
<g clip-path="url(#clip0)">
<path d="M5.79791 9.22997V13.5819C5.79791 13.8128 5.98509 14 6.21605 14H7.78396C8.01492 14 8.2021 13.8128 8.2021 13.5819V9.22997C8.2021 8.999 8.01492 8.81183 7.78396 8.81183H6.21605C5.98509 8.81183 5.79797 8.99895 5.79791 9.22997Z" fill="#0C5D94"/>
<path d="M2 11.23V13.5819C2 13.8128 2.18717 14 2.41814 14H3.98605C4.21701 14 4.40418 13.8128 4.40418 13.5819V11.23C4.40418 10.999 4.21701 10.8118 3.98605 10.8118H2.41814C2.18717 10.8118 2.00006 10.9989 2 11.23Z" fill="#0C5D94"/>
<path d="M5.09473 3.80566C5.09473 4.07471 5.31348 4.29346 5.58252 4.29346C5.85156 4.29346 6.07031 4.07471 6.07031 3.80566C6.07031 3.13232 5.43799 2.5752 4.51904 2.42578C4.48828 2.18604 4.2832 2 4.03516 2C3.78711 2 3.58203 2.18604 3.55127 2.42578C2.63232 2.5752 2 3.13232 2 3.80566C2 4.83496 3.021 5.20312 3.54736 5.36621V6.58252C3.1709 6.48438 2.9751 6.29004 2.9751 6.19922C2.9751 5.93018 2.75635 5.71143 2.48779 5.71143C2.21875 5.71143 2 5.93018 2 6.19922C2 6.87256 2.63232 7.42969 3.55127 7.5791C3.58203 7.81885 3.78711 8.00488 4.03516 8.00488C4.2832 8.00488 4.48828 7.81885 4.51904 7.5791C5.43799 7.42969 6.07031 6.87256 6.07031 6.19922C6.07031 5.16943 5.04932 4.80127 4.52295 4.63818V3.42236C4.89893 3.52051 5.09473 3.71484 5.09473 3.80566ZM5.09473 6.19922C5.09473 6.25 5.03809 6.34375 4.87793 6.43945C4.77881 6.49902 4.6582 6.54785 4.52295 6.58252V5.67529C4.99414 5.86133 5.09473 6.01611 5.09473 6.19922ZM2.97559 3.80566C2.97559 3.75488 3.03223 3.66113 3.19238 3.56543C3.2915 3.50586 3.41211 3.45703 3.54736 3.42236V4.32959C3.07617 4.14355 2.97559 3.98877 2.97559 3.80566Z" fill="#0C5D94"/>
<path d="M7.13037 4.85156H8.64129C8.90985 4.85156 9.1286 4.63281 9.1286 4.36377C9.1286 4.09473 8.90985 3.87598 8.64129 3.87598H7.13037C6.86133 3.87598 6.64258 4.09473 6.64258 4.36377C6.64258 4.63281 6.86133 4.85156 7.13037 4.85156Z" fill="#0C5D94"/>
<path d="M11.1592 5.42334H7.13037C6.86133 5.42334 6.64258 5.64209 6.64258 5.91113C6.64258 6.18018 6.86133 6.39893 7.13037 6.39893H11.1592C11.4287 6.39893 11.6475 6.18018 11.6475 5.91113C11.6475 5.64209 11.4287 5.42334 11.1592 5.42334Z" fill="#0C5D94"/>
<path d="M6.99665 15H1V1H10V4H13V6.96666C13.3137 6.96666 13.6863 6.97058 14 6.97058V3.10498L11 0H0V16H7.00068C7.00477 15.6609 7.00471 15.3265 6.99665 15ZM11 1.39996L12.5 3H11V1.39996Z" fill="#0C5D94"/>
<path d="M13.1155 8C11.4888 7.9699 10.1456 9.26424 10.1155 10.891C10.1149 10.9273 10.1149 10.9637 10.1155 11C10.0993 11.6516 10.3115 12.2884 10.7155 12.8L8.11552 15.3L8.81552 16L11.3155 13.5C11.8275 13.8153 12.4144 13.9879 13.0155 14C14.6423 14.0301 15.9854 12.7358 16.0155 11.109C16.0162 11.0727 16.0162 11.0363 16.0155 11C16.057 9.3851 14.7815 8.04234 13.1666 8.00087C13.1496 8.00043 13.1325 8.00014 13.1155 8ZM13.1155 13C12.011 13 11.1155 12.1046 11.1155 11C11.1155 9.89543 12.011 9 13.1155 9C14.2201 9 15.1155 9.89543 15.1155 11C15.1122 12.1032 14.2187 12.9967 13.1155 13Z" fill="#0C5D94"/>
</g>
<defs>
<clipPath id="clip0">
<rect width="16" height="16" fill="white"/>
</clipPath>
</defs>
</svg>
